<svg xmlns="http://www.w3.org/2000/svg" viewBox="0 0 1440 266.96"><defs><style>.cls-1{fill:#992f37;}</style></defs><g id="Layer_2" data-name="Layer 2"><g id="Layer_1-2" data-name="Layer 1"><path class="cls-1" d="M0,128H6.5C13,128,26,128,39,149.3,51.9,171,65,213,78,208c12.8-5,26-59,39-80,12.7-21,26-11,39-10.7,12.6-.3,26-10.3,39-21.3,12.6-11,26-21,39-5.3,12.5,16.3,25,58.3,38,48C285.4,128,298,64,311,53.3,324.3,43,337,85,350,96c13.2,11,26-11,39,10.7,13.2,21.3,26,85.3,39,90.6,13.1,5.7,26-48.3,39-53.3s26,37,39,26.7c12.9-10.7,26-74.7,39-96,12.8-21.7,26,.3,39,32,12.8,32.3,26,74.3,39,58.6,12.7-16.3,26-90.3,39-112C674.6,32,688,64,701,106.7c12.5,42.3,25,96.3,38,90.6,13.4-5.3,26-69.3,39-69.3,13.4,0,26,64,39,80,13.3,16,26-16,39-42.7,13.2-26.3,26-48.3,39-48,13.1-.3,26,21.7,39,48C947,192,960,224,973,240s26,16,39,21.3c12.9,5.7,26,15.7,39-21.3,12.8-37,26-123,39-133.3,12.7-10.7,26,53.3,39,64,12.6,10.3,26-31.7,39-53.4,12.5-21.3,26-21.3,38-5.3,13.5,16,26,48,39,80,13.4,32,26,64,39,48,13.3-16,26-80,39-106.7,13.2-26.3,26-16.3,39-5.3s26,21,39,10.7c13.1-10.7,26-42.7,33-58.7l6-16V0H0Z"/></g></g></svg>