<svg class="bicycle" xmlns="http://www.w3.org/2000/svg" viewBox="0 0 512.23 304.06">
  <g data-name="Layer 2">
    <path d="M500.72 152.34a103.94 103.94 0 00-125-51.09L333.07 16h67.06a8 8 0 010 16h-32a8 8 0 000 16h32a24 24 0 000-48h-80a8 8 0 00-7.2 11.58L323.19 32H181.07l-8-16h43.06a8 8 0 000-16h-80a8 8 0 000 16h19.06l12 24-30.63 61.25A104 104 0 10207.72 208h48.41a7.78 7.78 0 001.92-.25h.17c.18-.05.34-.15.53-.21a8.28 8.28 0 00.95-.34c.05 0 .07-.06.11-.09l.33-.17c.23-.15.45-.32.67-.49a9.26 9.26 0 001-.8l.31-.32c.12-.14.19-.29.3-.43s.38-.41.53-.65.1-.24.15-.35.15-.18.2-.28l72.83-145.73 24.8 49.6a103.81 103.81 0 10139.79 44.85zM104.13 288a88 88 0 1125.19-172.28L89 196.42A8 8 0 0096.13 208h95.59a88.08 88.08 0 01-87.59 80zm4.94-96l35.13-70.25A88.07 88.07 0 01191.72 192zm98.65 0a104 104 0 00-56.39-84.54l24.8-49.6L243.19 192zm48.41-9.89L189.07 48h134.12zm177.44 102.17a88 88 0 01-65.51-162.53L409 203.58a8 8 0 0014.32-7.16l-40.35-80.7a88 88 0 0150.63 168.56z" data-name="Capa 1"/>
  </g>
</svg>
