<svg class="drip-up drip" preserveAspectRatio="none" xmlns="http://www.w3.org/2000/svg" viewBox="0 0 1440 94"><defs><style>.cls-1{fill:#992f37;}</style></defs><g id="Layer_2" data-name="Layer 2"><g id="Layer_1-2" data-name="Layer 1"><path class="cls-1" d="M1440,48.93h-6.5c-6.5,0-19.5,0-32.5-7.5S1375,19,1362,20.76c-12.8,1.76-26,20.78-39,28.17-12.7,7.39-26,3.87-39,3.77-12.6.1-26,3.62-39,7.5-12.6,3.87-26,7.39-39,1.86-12.5-5.74-25-20.52-38-16.9-13.4,3.77-26,26.3-39,30.07-13.3,3.63-26-11.16-39-15-13.2-3.88-26,3.87-39-3.77-13.2-7.5-26-30-39-31.9-13.1-2-26,17-39,18.77s-26-13-39-9.41S908,60.2,895,67.7c-12.8,7.64-26-.11-39-11.27-12.8-11.37-26-26.16-39-20.63-12.7,5.74-26,31.79-39,39.43-12.6,7.5-26-3.77-39-18.8-12.5-14.89-25-33.91-38-31.9-13.4,1.86-26,24.4-39,24.4-13.4,0-26-22.54-39-28.17-13.3-5.63-26,5.63-39,15-13.2,9.26-26,17-39,16.9-13.1.1-26-7.64-39-16.9S480,15.13,467,9.49,441,3.86,428,2s-26-5.53-39,7.5c-12.8,13-26,43.31-39,46.94-12.7,3.77-26-18.77-39-22.54-12.6-3.62-26,11.17-39,18.81a39.27,39.27,0,0,1-38,1.86c-13.5-5.63-26-16.9-39-28.17-13.4-11.26-26-22.53-39-16.9-13.3,5.64-26,28.17-39,37.57-13.2,9.26-26,5.74-39,1.87s-26-7.39-39-3.77c-13.1,3.77-26,15-33,20.67L0,71.46V94H1440Z"/></g></g></svg>